<svg xmlns="http://www.w3.org/2000/svg" width="21.951" height="21.914" viewBox="13 0 21.951 21.914"><g data-name="Group 4526"><path d="M34.95 14.377c-.085.146-.146.315-.26.432a.792.792 0 0 1-.888.197c-.33-.12-.516-.37-.56-.72-.01-.09-.006-.184-.006-.277v-8.77c0-.733-.3-1.3-.968-1.63a1.795 1.795 0 0 0-.655-.172c-.39-.027-.784-.008-1.208-.008 0 .293.01.583-.003.872a.852.852 0 0 1-1.306.7.833.833 0 0 1-.403-.735c-.005-.27-.001-.54-.001-.827H24.79v.76c-.004.547-.351.928-.848.934-.505.006-.863-.38-.867-.936v-.76h-3.859c0 .258.002.513 0 .767-.004.544-.356.926-.852.93-.498.002-.857-.38-.862-.92-.002-.256 0-.511 0-.815-.507.027-1.008-.005-1.482.09-.788.16-1.285.842-1.304 1.666-.006.257-.001.514-.001.77v12.428c-.001.74.283 1.324.963 1.652.242.116.534.183.803.183 4.994.011 9.987.01 14.981.006.993 0 1.697-.67 1.769-1.662.018-.252.08-.478.264-.657a.855.855 0 0 1 1.37.245c.03.064.057.13.086.194v.556c-.062.24-.106.485-.188.717-.5 1.43-1.778 2.32-3.33 2.32-4.608.002-9.215 0-13.822 0-.429 0-.858.018-1.286-.006-1.354-.073-2.357-.718-2.967-1.923-.174-.342-.242-.737-.358-1.108V4.75c.014-.04.034-.077.04-.117.17-1.045.708-1.847 1.601-2.412.638-.403 1.343-.534 2.086-.51.254.007.508 0 .775 0 0-.234.011-.44-.003-.645-.035-.53.177-.892.689-1.066h.343c.51.174.723.537.688 1.066-.014.21-.003.421-.003.631h3.859c0-.22.012-.426-.002-.631-.036-.53.177-.892.688-1.066h.343c.51.174.724.537.688 1.066-.014.21-.002.421-.002.631h3.901c0-.22.012-.426-.002-.631-.036-.53.177-.892.688-1.066h.343c.511.174.724.537.688 1.066-.014.21-.002.422-.002.649.427 0 .827-.02 1.224.003 1.353.075 2.354.72 2.964 1.925.173.341.24.736.357 1.107v9.627Z" fill="#1c3c34" fill-rule="evenodd" data-name="Path 1517"/><path d="M27.676 17.28c-.364 0-.73.022-1.092-.004-.89-.064-1.548-.683-1.603-1.57a18.67 18.67 0 0 1-.001-2.266c.052-.873.682-1.51 1.555-1.566.761-.049 1.53-.048 2.291-.001.875.054 1.507.687 1.56 1.56a18.32 18.32 0 0 1 .001 2.266c-.058.935-.78 1.568-1.725 1.586-.329.007-.657.001-.986.001v-.006Zm1.006-3.705H26.69v1.985h1.993v-1.985Z" fill="#1c3c34" fill-rule="evenodd" data-name="Path 1518"/><path d="M19.215 8.994a.86.86 0 0 1-.87.846.86.86 0 0 1-.842-.874.86.86 0 0 1 .86-.835.86.86 0 0 1 .852.863Z" fill="#1c3c34" fill-rule="evenodd" data-name="Path 1519"/><path d="M22.945 8.992a.86.86 0 0 1-.868.848.86.86 0 0 1-.844-.872.86.86 0 0 1 .857-.837.86.86 0 0 1 .855.861Z" fill="#1c3c34" fill-rule="evenodd" data-name="Path 1520"/><path d="M25.822 9.84a.86.86 0 0 1-.86-.857.86.86 0 0 1 .864-.852.86.86 0 0 1 .849.846.86.86 0 0 1-.853.863Z" fill="#1c3c34" fill-rule="evenodd" data-name="Path 1521"/><path d="M30.405 8.98a.86.86 0 0 1-.856.86.86.86 0 0 1-.856-.86.86.86 0 0 1 .845-.849.86.86 0 0 1 .867.849Z" fill="#1c3c34" fill-rule="evenodd" data-name="Path 1522"/><path d="M19.215 12.702a.86.86 0 0 1-.855.86.86.86 0 0 1-.857-.858.86.86 0 0 1 .844-.85.86.86 0 0 1 .868.848Z" fill="#1c3c34" fill-rule="evenodd" data-name="Path 1523"/><path d="M22.945 12.712a.86.86 0 0 1-.865.85.86.86 0 0 1-.847-.868.86.86 0 0 1 .854-.84.86.86 0 0 1 .858.858Z" fill="#1c3c34" fill-rule="evenodd" data-name="Path 1524"/><path d="M19.215 16.42a.86.86 0 0 1-.851.865.86.86 0 0 1-.86-.855.86.86 0 0 1 .84-.853.86.86 0 0 1 .87.844Z" fill="#1c3c34" fill-rule="evenodd" data-name="Path 1525"/><path d="M22.945 16.434a.86.86 0 0 1-.865.851.86.86 0 0 1-.847-.868.86.86 0 0 1 .854-.84.86.86 0 0 1 .858.857Z" fill="#1c3c34" fill-rule="evenodd" data-name="Path 1526"/></g></svg>