<svg xmlns="http://www.w3.org/2000/svg" width="22.422" height="22.414" viewBox="1.539 -0.25 22.422 22.414"><g data-name="Path 1516"><path d="M24.21 11.667c-.128.385-.303.742-.608 1.022-.394.36-.855.552-1.39.56h-.367v.26c0 2.148.004 4.297-.002 6.446-.002 1.177-.748 2.125-1.872 2.39a2.728 2.728 0 0 1-.608.065c-1.14.006-2.28.003-3.421.002-.496 0-.76-.26-.76-.755-.002-1.681-.02-3.363.008-5.043.011-.733-.489-1.286-1.272-1.257-.613.024-1.228.004-1.842.006-.764.002-1.209.448-1.21 1.215v5.021c0 .572-.243.814-.813.814H6.719c-1.472-.003-2.514-1.039-2.516-2.51-.002-2.12 0-4.24 0-6.36v-.271c-.25-.021-.492-.02-.724-.066-.782-.152-1.318-.615-1.571-1.366-.252-.743-.098-1.426.41-2.026.065-.078.14-.149.212-.221 2.858-2.859 5.718-5.715 8.574-8.576.413-.414.814-.837 1.394-1.017h1.053c.554.178.95.571 1.349.97a3735.77 3735.77 0 0 0 8.444 8.442c.378.377.717.766.867 1.29v.965Zm-7.713 9.43H19.275c.824 0 1.254-.432 1.254-1.258V12.69c0-.494.264-.754.76-.756.308-.002.615.004.922-.003.332-.008.599-.22.693-.539.109-.368-.069-.627-.315-.873-2.97-2.964-5.936-5.932-8.903-8.898-.476-.476-.848-.474-1.33.008L4.431 9.552c-.367.367-.737.73-1.1 1.102-.23.238-.29.524-.156.829.129.293.368.446.692.45.27.002.541 0 .812 0 .602 0 .84.236.84.832v7.148c0 .723.458 1.182 1.174 1.183.877.002 1.754.001 2.632 0 .07 0 .14-.007.225-.012v-.279c.002-1.483-.012-2.967.01-4.45.017-1.168.955-2.193 2.122-2.271.894-.06 1.796-.012 2.694-.01.065 0 .13.014.195.028 1.148.252 1.917 1.198 1.924 2.393.009 1.44.002 2.88.002 4.32v.282Z" fill="#1c3c34" fill-rule="evenodd"/><path d="M24.21 11.667c-.128.385-.303.742-.608 1.022-.394.36-.855.552-1.39.56h-.367v.26c0 2.148.004 4.297-.002 6.446-.002 1.177-.748 2.125-1.872 2.39a2.728 2.728 0 0 1-.608.065c-1.14.006-2.28.003-3.421.002-.496 0-.76-.26-.76-.755-.002-1.681-.02-3.363.008-5.043.011-.733-.489-1.286-1.272-1.257-.613.024-1.228.004-1.842.006-.764.002-1.209.448-1.21 1.215v5.021c0 .572-.243.814-.813.814H6.719c-1.472-.003-2.514-1.039-2.516-2.51-.002-2.12 0-4.24 0-6.36v-.271c-.25-.021-.492-.02-.724-.066-.782-.152-1.318-.615-1.571-1.366-.252-.743-.098-1.426.41-2.026.065-.078.14-.149.212-.221 2.858-2.859 5.718-5.715 8.574-8.576.413-.414.814-.837 1.394-1.017h1.053c.554.178.95.571 1.349.97a3735.77 3735.77 0 0 0 8.444 8.442c.378.377.717.766.867 1.29v.965Zm-7.713 9.43H19.275c.824 0 1.254-.432 1.254-1.258V12.69c0-.494.264-.754.76-.756.308-.002.615.004.922-.003.332-.008.599-.22.693-.539.109-.368-.069-.627-.315-.873-2.97-2.964-5.936-5.932-8.903-8.898-.476-.476-.848-.474-1.33.008L4.431 9.552c-.367.367-.737.73-1.1 1.102-.23.238-.29.524-.156.829.129.293.368.446.692.45.27.002.541 0 .812 0 .602 0 .84.236.84.832v7.148c0 .723.458 1.182 1.174 1.183.877.002 1.754.001 2.632 0 .07 0 .14-.007.225-.012v-.279c.002-1.483-.012-2.967.01-4.45.017-1.168.955-2.193 2.122-2.271.894-.06 1.796-.012 2.694-.01.065 0 .13.014.195.028 1.148.252 1.917 1.198 1.924 2.393.009 1.44.002 2.88.002 4.32v.282Z" stroke-linejoin="round" stroke-linecap="round" stroke-width=".5" stroke="#0b1d46" fill="transparent"/></g></svg>