<svg xmlns="http://www.w3.org/2000/svg" width="24.363" height="22.414" viewBox="6.75 -0.25 24.363 22.414"><g data-name="Path 1527"><path d="M10.339 22.414v-.357c0-1.42-.004-2.842.004-4.262.001-.212-.046-.29-.275-.303-1.62-.089-3.03-1.518-3.047-3.143-.028-2.622-.011-5.244-.013-7.866-.001-.99.027-1.98-.006-2.969C6.937 1.624 8.43-.016 10.515 0c3.525.028 7.05.008 10.576.008h6.772c1.324-.001 2.349.542 3.04 1.68.325.533.455 1.125.456 1.744.002 3.553.007 7.105-.002 10.657-.005 1.994-1.467 3.422-3.49 3.425-3.39.005-6.781.003-10.171-.002a.919.919 0 0 0-.56.176c-2.169 1.516-4.34 3.025-6.512 4.536-.075.053-.153.102-.285.19Zm1.431-2.742c.116-.074.193-.12.267-.171 1.554-1.082 3.11-2.161 4.66-3.248a.877.877 0 0 1 .536-.172c3.542.006 7.085.006 10.627.003 1.26 0 2.069-.798 2.07-2.055.005-3.51.008-7.02-.007-10.53a2.365 2.365 0 0 0-.207-.978c-.374-.786-1.05-1.086-1.904-1.085-5.749.007-11.498.004-17.247.004-.093 0-.186.001-.28.007-1.067.066-1.843.839-1.846 1.907-.013 3.603-.006 7.207-.004 10.81 0 .426.127.816.39 1.156.412.533.964.772 1.631.766.429-.004.857 0 1.314 0v3.586Z" fill="#1c3c34" fill-rule="evenodd"/><path d="M10.339 22.414v-.357c0-1.42-.004-2.842.004-4.262.001-.212-.046-.29-.275-.303-1.62-.089-3.03-1.518-3.047-3.143-.028-2.622-.011-5.244-.013-7.866-.001-.99.027-1.98-.006-2.969C6.937 1.624 8.43-.016 10.515 0c3.525.028 7.05.008 10.576.008h6.772c1.324-.001 2.349.542 3.04 1.68.325.533.455 1.125.456 1.744.002 3.553.007 7.105-.002 10.657-.005 1.994-1.467 3.422-3.49 3.425-3.39.005-6.781.003-10.171-.002a.919.919 0 0 0-.56.176c-2.169 1.516-4.34 3.025-6.512 4.536-.075.053-.153.102-.285.19Zm1.431-2.742c.116-.074.193-.12.267-.171 1.554-1.082 3.11-2.161 4.66-3.248a.877.877 0 0 1 .536-.172c3.542.006 7.085.006 10.627.003 1.26 0 2.069-.798 2.07-2.055.005-3.51.008-7.02-.007-10.53a2.365 2.365 0 0 0-.207-.978c-.374-.786-1.05-1.086-1.904-1.085-5.749.007-11.498.004-17.247.004-.093 0-.186.001-.28.007-1.067.066-1.843.839-1.846 1.907-.013 3.603-.006 7.207-.004 10.81 0 .426.127.816.39 1.156.412.533.964.772 1.631.766.429-.004.857 0 1.314 0v3.586Z" stroke-linejoin="round" stroke-linecap="round" stroke-width=".5" stroke="#0b1d46" fill="transparent"/></g></svg>