<svg xmlns="http://www.w3.org/2000/svg" width="21.939" height="21.914" viewBox="6 0 21.939 21.914"><g data-name="Group 4525"><path d="M27.939 9.375c-.15.422-.42.709-.895.678a1.166 1.166 0 0 1-.53-.197c-.788-.515-1.637-.87-2.568-1.01-1.679-.255-3.236.072-4.65 1.023-.27.183-.518.402-.767.616a.398.398 0 0 0-.132.229 4.334 4.334 0 0 1-1.31 2.652c-.024.024-.044.053-.065.078.393.203.78.396 1.16.6.17.091.33.199.488.31.41.287.517.785.26 1.184a.84.84 0 0 1-1.184.249c-.658-.427-1.346-.787-2.112-.96-2.43-.546-4.55.055-6.342 1.778-.674.647-1.128 1.44-1.478 2.307-.295.734.2 1.321.906 1.314 2.407-.024 4.814-.01 7.22-.008.488 0 .82.244.92.67a.806.806 0 0 1-.785 1.002c-2.528 0-5.057-.004-7.585.002-1.015.002-1.718-.496-2.191-1.35-.45-.81-.344-1.632-.002-2.453.885-2.122 2.401-3.612 4.502-4.522l.291-.125c-1.146-1.147-1.617-2.506-1.31-4.087.228-1.174.87-2.1 1.864-2.768 2.205-1.482 5.378-.654 6.466 1.961l1.825-.992c-1.125-1.124-1.598-2.497-1.281-4.093.22-1.11.826-1.99 1.74-2.66 1.7-1.248 4.197-1.012 5.66.504a4.408 4.408 0 0 1-.173 6.284c.08.038.153.069.223.107.47.256.953.49 1.399.78.186.122.293.366.436.554v.343ZM14.055 7.572a2.66 2.66 0 0 0-2.655 2.655 2.67 2.67 0 0 0 2.658 2.657 2.667 2.667 0 0 0 2.653-2.66 2.657 2.657 0 0 0-2.656-2.652ZM25.58 4.358a2.663 2.663 0 0 0-2.658-2.654 2.663 2.663 0 0 0-2.653 2.659 2.663 2.663 0 0 0 2.658 2.654 2.663 2.663 0 0 0 2.653-2.66Z" fill="#1c3c34" fill-rule="evenodd" data-name="Path 1514"/><path d="M27.939 18.033c-.177.51-.542.704-1.072.69-.705-.021-1.411-.006-2.142-.006v2.301c0 .28-.088.518-.302.704-.276.239-.606.225-.908.117-.339-.12-.498-.417-.502-.777-.006-.693-.002-1.386-.002-2.079v-.266h-.235c-.7 0-1.4.003-2.1-.002-.34-.002-.607-.149-.771-.453a.805.805 0 0 1 .028-.855c.172-.276.433-.404.757-.404H23.011v-.238c0-.679-.002-1.357 0-2.036.002-.557.36-.943.866-.938.497.004.845.386.847.934.003.749 0 1.498 0 2.278h.239c.636 0 1.272.016 1.907-.005.531-.018.895.179 1.069.692v.343Z" fill="#1c3c34" fill-rule="evenodd" data-name="Path 1515"/></g></svg>